
<svg id="logo" xmlns="http://www.w3.org/2000/svg" viewBox="0 0 1018.03 767.21"><title>Jay Linsell Logo</title><path d="M1016.24,303.67a103.94,103.94,0,0,0-19-43.63,126.22,126.22,0,0,0-35.91-31.6c-27.64-15.95-59-21.18-88.64-20-29.79,1.12-58.3,8.26-85.32,17.81a471.91,471.91,0,0,0-77.27,36.18,552.15,552.15,0,0,0-57.23,38.6c.25-1.92.46-3.83.76-5.74,4.36-27.51,13.74-54.07,25.63-79.27,21.44-44.77,50.32-85.48,81.93-123.67-.81,1.16-2.52,3.31-3.64,4.67,3-3.24,11.36-10.55,13.49-10.58,1.26.12,2.51,1,3.66,1.1a4.58,4.58,0,0,0,4.93-4.12,4.47,4.47,0,0,0-4.07-4.89,4.54,4.54,0,0,0-3.31,1c-.66.55-3.44,3.82-6.44,7.29,2.49-3,5-6,7.47-8.88-3.42,4-6.79,8-10.15,12l-1.47,1.64a1.14,1.14,0,0,1-.13.23c-32,38.19-61.19,78.94-83,123.87-12.17,25.13-21.92,51.66-26.61,79.34-.43,2.51-.76,5-1.09,7.58-3.44,2.65-6.91,5.28-10.28,8-10.89,8.91-21.79,17.79-32.19,27.23s-21,18.17-31.9,26.83c-1.23,1-2.51,1.9-3.75,2.86a72.16,72.16,0,0,0-31.49,24c-9,6.65-18.19,13.15-27.39,19.58a46.2,46.2,0,0,1-2.58-7.8c0-.13-.08-.23-.12-.38a27.89,27.89,0,0,1-.37-5.78,31,31,0,0,1,21.59-29.52,42.28,42.28,0,0,0-8.25-.83c-1.4,0-2.77.08-4.13.21-1,.1-2.06.27-3.08.45l-.84.12a43.23,43.23,0,0,0-7.43,2.18,42.35,42.35,0,0,0-26.9,39.42c0,.82.11,1.61.15,2.42.23,1.71.52,3.78.79,6.1.11.52.18,1.05.3,1.56a91.13,91.13,0,0,0,3.39,10.48Q472.3,439.09,458,448.08v-45.7l.23-.08a62.33,62.33,0,0,1,11-31.67l.23-.23-.13.07v0s0-.09,0-.14c-.31.25-.75.44-1.08.67a62.37,62.37,0,0,1-24.22,6.71l.15.24c-7,.68-18.44,1.75-19.37,1.83a38.14,38.14,0,0,0-35.48,38c0,.34.07.65.08,1s-.08.47-.08.72v69.73q-4.68,2.64-9.37,5.23V383.37l-50.63,36.08a19.31,19.31,0,0,1,14.91,18.78c0,.29,0,1.35,0,1.67l.12,35.39h-.16l.14,38.19q-14.28,7.35-28.76,14.33V393.4L265,429.48a19.31,19.31,0,0,1,14.91,18.78c0,.29,0,1.35,0,1.68l.32,94.17c-10.52,4.6-21.13,9.06-31.82,13.3V337c1.41-.49,2.8-1,4.21-1.51a568.49,568.49,0,0,1,80-20.91A493.4,493.4,0,0,1,414.44,306a304.79,304.79,0,0,1,80.19,8.6,200.49,200.49,0,0,1,36.72,13.36,132,132,0,0,1,16.3,9.34c2.45,1.78,4.9,3.56,7.08,5.44,1.15.92,2.09,1.89,3.12,2.81.33.34.75.77,1.12,1.17l.25.33,0,.57.42-.11c.07.1.14.18.11.18l.31-.28a65.37,65.37,0,0,0,16.67-6.18A66.14,66.14,0,0,0,611,289.62c.15-.17.27-.34.43-.5v-77.4l0-.06c0-.18,0-.35,0-.53a13,13,0,0,1,9.71-12.53l0-.08a37.58,37.58,0,0,1-8.48-23.82c0-.64,0-4.32,0-5.36v-5.47l0,0V32.42L562,68.5a19.31,19.31,0,0,1,14.91,18.78c0,.29,0,1.34,0,1.67l.37,106.93v38.43l-10.15,9.75q-19.5-7.71-25-23.15t-5.48-25.18v-155A68.37,68.37,0,0,1,505.22,77,67.36,67.36,0,0,1,488,83.43a29.34,29.34,0,0,1,3,2.46A30.34,30.34,0,0,1,497.89,96q3,6.69,3,17.66v82q0,22.76-1.42,35.53c-.32,2.86-3.85,8.84-8.47,15.61a42.85,42.85,0,0,1-19.62-36c0-.58-.12-4.58-.12-6.08V108.42h0v-64a62.84,62.84,0,0,1-16.37,12.81,62.31,62.31,0,0,1-17.62,6.24c-4.5,1.35-26.88,4.51-30.19,4.82a23.2,23.2,0,0,1-3.47.3,22.12,22.12,0,0,1-19.68-12.13c-.07-.11-.18-.23-.24-.34l-43.56,47.2q9.74-.41,26.8,8.73a110.26,110.26,0,0,1,31.27,25.59q14.21,16.44,17.05,36.34a4.49,4.49,0,0,0,1.83,2.64,5.13,5.13,0,0,0,3.05,1c3.25,0,4.87-1.35,4.87-4.07v-.81l-.41-2.89a91.39,91.39,0,0,0-64.39-65.67l-.17-.07c-2.17-.27,65.38-10.46,73.5-10.19l.4,133h.55c.07.6.23,1.18.32,1.78l-16.3,20q-3.25,3.25-10.55,3.25a45.24,45.24,0,0,1-21.33-5.69q-10.75-5.67-10.75-13V157.72l14.61-8.11v-5.28L329.55,176a26.42,26.42,0,0,1,9,19.77c0,.06,0,.11,0,.16v47.9q0,14.61,12.39,23.55a89.46,89.46,0,0,0,27.82,13.4q15.42,4.47,15.43,3.66l41.51-51.13a72.36,72.36,0,0,0,30.77,44.83v.57l.2-.21c10-3.85,45-38.65,51-43.77A106.51,106.51,0,0,0,527.73,251a174,174,0,0,0,11.17,13.6q5.07,5.49,6.3,7.11l32.08-30.46v54.42c0,4.48,0,14.36-.16,22.11-.84-.62-1.69-1.21-2.54-1.76-3.4-2.3-6.86-4.26-10.31-6.2a167.21,167.21,0,0,0-21.06-9.53A228.43,228.43,0,0,0,500,289c-29-4.85-57.93-5.29-86.51-3.25-56.92,4.52-112.37,17.82-165.12,37.84V311c1.41-1.1,2.86-2.17,4.24-3.32q15.63-13,38-34.11,17.46-16.25,25.79-22.95t15.23-8.32q0,.83-5.28-3.86A41.54,41.54,0,0,1,317,225.61q-4.07-8.12-4.06-20.3V38.5A67.32,67.32,0,0,0,339.46,0c-.68.58-1.42,1.08-2.12,1.64-1.36,1.06-2.72,2.13-4.15,3.1-1.75,1.18-3.53,2.31-5.39,3.31a3.78,3.78,0,0,1-.35.17c-1.34.68-2.77,1.37-4.39,2a67.53,67.53,0,0,1-12.93,4.25c-1.48.32-3,.62-4.67.89-.6.09-1.19.19-1.79.26A177.13,177.13,0,0,1,278,17.29H254.29v.78a38.69,38.69,0,0,0-7.19-.7,37.91,37.91,0,0,0-32.67,18.77c-.06,0-.14-.08-.15-.07-.19.36-.42.86-.64,1.32a37.55,37.55,0,0,0-2.58,5.83c-.07.21-.13.43-.2.65-6.53,16.23-17.21,47.64-17.36,49.32a7.3,7.3,0,0,0,6.65,8,7.4,7.4,0,0,0,8-6.72,7.3,7.3,0,0,0-1.68-5.37c-1.2-1.44-3-2.19-4.36-3.76-.73-.76-.35-6.32,1.89-12,1.66-4.22,3.92-6.52,6.32-7.82l.61-.26a12.28,12.28,0,0,1,5.24-1.2H244.7v86.74c-.66,3.39-3.45,11.93-15.15,22.29l-3.81,3,.1.12-.06.05.07,0,14.44,17.62,4.41,5.75v97.17a175.9,175.9,0,0,1-35.63,25.64c-.61.36-1.22.71-1.85,1.05l-.9.52-1.18.58c-1.14.59-2.29,1.16-3.46,1.71l-1.44.66c-1,.43-1.93.86-2.91,1.26a85.14,85.14,0,0,1-23.7,6.32A96.7,96.7,0,0,1,63.84,238.5a96,96,0,0,1,7.4-37,62.77,62.77,0,0,1,17.42-27.08,56.94,56.94,0,0,1,7-6.1,43.42,43.42,0,0,1,14.92-6.95,63.37,63.37,0,0,1,13.49-3c.88,0,1.74-.14,2.63-.14a50.84,50.84,0,0,1,11,1.32c2.22.74,4,1.83,4.64,3.08,1.44,2.45,1.55,5.17,2.86,7.4a10.16,10.16,0,1,0,11.36-14.9,130.59,130.59,0,0,0-24.55-2h-.13c-.21,0-.42,0-.64,0-1.37,0-2.74.07-4.11.14a101.06,101.06,0,0,0-21.59,3.47V157a96,96,0,0,0-28,12.81,129.13,129.13,0,0,0-15.77,12.36,99.09,99.09,0,0,0-29.58,70.66c0,2.35.1,4.66.26,7A62.39,62.39,0,0,0,4.08,267a62.82,62.82,0,0,1,39.33,31.62c.27.52.63,1.15,1,1.81A100.09,100.09,0,0,0,92,344.09a127.73,127.73,0,0,0,45.51,8.23q41,0,80.41-21.93a192.73,192.73,0,0,0,26.82-16.56V325a624.56,624.56,0,0,0-73.18,33.89c-24.67,13.57-48.75,28.11-71.07,45.41A410.42,410.42,0,0,0,40,463,243.85,243.85,0,0,0,15.9,497.51C9,509.75,3.25,522.86.89,536.92a55.21,55.21,0,0,0,.46,21.31,39.65,39.65,0,0,0,10.35,18.7C22,587.24,36.27,591.77,50,594.28c27.75,5.12,56.2,3.47,83.8-1A468.34,468.34,0,0,0,188,580.89a55.8,55.8,0,0,1-2.59,9.67,36.78,36.78,0,0,0,6-10.61l6.51-1.92q-4.44,17.24-20.61,34.05l-5.28-.41q-20.72,0-40.61,14.62A207.35,207.35,0,0,0,96.7,658.17q-14.83,17.26-14.82,18.89a99,99,0,0,1,10.63-10.58,73.25,73.25,0,0,1,84.79-10.41,64.63,64.63,0,0,1,5.9,3.12c14.48,8.66,114.72,82.3,140.71,92.59s51,15.43,75.13,15.43,45.75-5.22,65-15.64c3-1.62,5.84-3.4,8.64-5.27v.06a152.24,152.24,0,0,0,49.64-46.92,127.38,127.38,0,0,0,11.24-18.92,10.13,10.13,0,1,0-18.73.36c1,2.38,3.8,4.42,4.93,7,1,2,.59,4.69-1.45,8a100.69,100.69,0,0,1-12.11,15.51c-1.35,1.41-2.76,2.77-4.19,4.1-.52.49-1,1-1.55,1.47L499.2,718c-1.78,1.54-3.63,3-5.52,4.42l-.83.64-1.37,1c-2.08,1.47-4.23,2.85-6.42,4.15-.65.39-1.3.79-2,1.17-2.15,1.22-4.37,2.33-6.62,3.38-.77.37-1.54.76-2.33,1.11a98.51,98.51,0,0,1-39.76,8.36c-.79,0-5.4-.22-7.24-.29-.92-.08-1.83-.13-2.76-.22l-.4,0c-23.66-2.3-49.89-10.38-78.76-24.42-34.52-16.79-96.85-66.6-96.85-66.6V630.8c1-3.87,4.54-12.59,18.18-23.33l-13.89-17.94,0,0-4.31-5.62V560.68q16-6.13,31.84-12.89l0,16V578.1a57.66,57.66,0,0,0,22.28,45.54l1.34-1.51s22.36-25,22.35-25l18.61-20.66a57.65,57.65,0,0,0,22,40.32l1.34-1.5,22.35-25,2.54-2.83V581h0V492.33q14.79-8.18,29.41-16.65l.24,74.22v14.31A57.66,57.66,0,0,0,445,609.75l1.34-1.51s22.36-25,22.35-25l5.52-6.13h0A44.16,44.16,0,0,1,549,590.23,87.42,87.42,0,0,1,554.51,619a91.61,91.61,0,0,1,12.4-27.37,143.35,143.35,0,0,1,40.7-45.25c.94-.84,1.64-1.44,2.23-1.92A97.29,97.29,0,0,0,590,494.69l-.11-.13Q580.5,483.8,563,467.14q-23.55-23.55-28.42-28.83s0-.08,0-.12-.23-.09-.22-.15a34.42,34.42,0,0,1,54.48-25.17,52,52,0,0,1,34.65-44.07l2.28-.8a71.27,71.27,0,0,0-27-5.34,74.13,74.13,0,0,0-8.62.56c7.93-6.3,15.8-12.71,23.46-19.3,10.57-9,21.39-17.71,32.61-25.86,1.08-.79,2.19-1.53,3.27-2.31a160.05,160.05,0,0,0,6.17,56.86l-43,34.63a36,36,0,0,1,11.28,26.18c0,.6-.07,1.19-.09,1.78,0,1,.1,2,.1,3.14V547.49l53.2,41.83,54.15-58.67v7.45a57.66,57.66,0,0,0,22.28,45.54l1.34-1.51,22.35-25,20-22.19a57.68,57.68,0,0,0,22.12,42.75l1.34-1.51s22.36-25,22.35-25a44.76,44.76,0,0,1,9.56-8.68,37.6,37.6,0,0,1,14.26-4.88,39,39,0,0,1,28.8,7.86,40.41,40.41,0,0,0-29-10.57,41.47,41.47,0,0,0-21.13,6.93l-.16,0-.12.14a41.29,41.29,0,0,0-6.53,5.43,22.21,22.21,0,0,1-4.46-6.53l-.12-.24a22.7,22.7,0,0,1-.88-2.6,1,1,0,0,1,0-.1,23,23,0,0,1-.53-2.65c0-.06,0-.13,0-.19a24.16,24.16,0,0,1-.19-3v-.91c0-.87,0-2.05,0-2.51V484.9A246.88,246.88,0,0,0,868.27,483c28-3.67,55.6-12.29,79.91-27.26,24.25-14.78,45.13-36.6,56.36-63.81a130.35,130.35,0,0,0,6.73-20.94c1.56-7.19,3.47-14.21,4.67-21.59A130.86,130.86,0,0,0,1016.24,303.67ZM271.1,64V255.66q0,6.91-6.1,17.06A100.24,100.24,0,0,1,248.38,293V261.8h0V201.86c.92-3.83,4.46-12.61,18.21-23.43l-13.89-17.94h0l-4.34-5.66V64ZM225.23,496.14a395.88,395.88,0,0,0-28-46.09q-10.56-15.44-14.62-23.15-5.28-10.56-5.28-19.9,0-14.21,10.35-23.14t22.14-8.94a20.08,20.08,0,0,1,11,2.84q7.32,4.88,7.31,14.22a30.27,30.27,0,0,1-1.83,10.35,39,39,0,0,1-2.64,6.3q2-2.83,7.72-12.39a235.24,235.24,0,0,0,11.17-21.32c.85-1.83,1.58-3.56,2.23-5.23V558.83q-7.59,3-15.25,5.8a57.72,57.72,0,0,0,6.32-26.87Q235.79,517.06,225.23,496.14Zm-33,80.94a37,37,0,0,0,1.37-9.67,45.51,45.51,0,0,0-6.1-22.33,194.27,194.27,0,0,0-22.13-33.71c-7.62-9.24-17.35-17.51-29-24.92A31.43,31.43,0,0,0,94,495.78a15.05,15.05,0,0,0-1.78,5.79,91.41,91.41,0,0,1,13.61,38.13l.21.95a47.87,47.87,0,0,1,5.85-5.45,33.22,33.22,0,0,1,8.79-5.44,47.49,47.49,0,0,1,68.07,42.88c0,.41-.05.81-.06,1.22v0a38.35,38.35,0,0,1-.25,4.23,470.89,470.89,0,0,1-55.07,12.69c-27.42,4.39-55.61,6-82.93.93-13.5-2.46-27.22-6.94-36.89-16.64a37.13,37.13,0,0,1-9.67-17.49,52.89,52.89,0,0,1-.4-20.3c2.21-13.59,8.12-26.39,15-38.33a239,239,0,0,1,24.26-33.74,313.2,313.2,0,0,1,61.74-55.45c11.51-7.62,23.22-15.14,35.1-22.27s24.08-13.77,36.45-20a602,602,0,0,1,68.67-29.19v10.34a8.64,8.64,0,0,0-4.87-1.36q-13,0-35.33,15.63a237.88,237.88,0,0,0-41,36.55Q144.83,420.42,142,434.62a10.54,10.54,0,0,0-.41,3.25q0,9.35,6.71,22.53t20.5,36q15.43,26,23.15,41.62t7.72,27a51.26,51.26,0,0,1-1.09,10.15C196.44,575.78,194.32,576.45,192.19,577.08Zm52.53,2.56c-.61,3.31-3.32,11.93-15.17,22.41l-3.81,3,.1.11-.06.05.07,0,14.44,17.61h0l4.43,5.79v19.24q-15.43-11.37-33.91-22.74t-25.38-11.37a201.82,201.82,0,0,0,40.21-42.64c.6-.88,1.15-1.78,1.71-2.68q8.72-3.06,17.37-6.33ZM533,405.43a71.65,71.65,0,0,0-6.16,25.74c-.77-.78-1.51-1.65-2.26-2.5v0l-.19-.24a40.61,40.61,0,0,1-4.07-5.37s0-.11-.05-.15a67.89,67.89,0,0,1-3.78-6.21Q524.81,411.14,533,405.43Zm-210.22,189a22.65,22.65,0,0,1-5.39-7.6c0-.08-.08-.15-.11-.24a21,21,0,0,1-.89-2.6l0-.09a19.56,19.56,0,0,1-.53-2.66c0-.06,0-.12,0-.19a22.3,22.3,0,0,1-.2-3v-.92c0-.87,0-2,0-2.5V531.94q14.49-6.8,28.78-14l.14,38.95v13.4Zm66.57-9.07-2.3-1.79a22.37,22.37,0,0,1-5.39-7.6l-.12-.23a22.09,22.09,0,0,1-.88-2.6,1,1,0,0,0,0-.1,23.44,23.44,0,0,1-.53-2.65c0-.07,0-.13,0-.2a22.19,22.19,0,0,1-.19-3v-.92c0-.86,0-2,0-2.5v-48.9l.13-.14V499.43c3.13-1.69,6.26-3.36,9.37-5.07ZM393,487.14V432.88c0-.17,0-.32,0-.49s0-.27,0-.42,0-.05,0-.08,0-.1,0-.15a14.6,14.6,0,0,1,29.2-.09l.05.09.13,38.35Q407.84,478.78,393,487.14Zm169.59,31.58a54.66,54.66,0,0,1,11,33.7q0,15.84-8.52,33.3a59.82,59.82,0,0,0-10.56-31.06,120.47,120.47,0,0,0-22.34-25q-12.58-10.54-32.08-24c-4.07-2.78-7.56-5.22-10.5-7.34a96.34,96.34,0,0,1-24.36,82.15,22.41,22.41,0,0,1-5.38-7.58,2.53,2.53,0,0,0-.12-.23,24.09,24.09,0,0,1-.88-2.6.54.54,0,0,1,0-.1,21.45,21.45,0,0,1-.54-2.65,1.38,1.38,0,0,1,0-.2,22.18,22.18,0,0,1-.2-3v-.92c0-.86,0-2,0-2.5V454.35q15.38-9.47,30.56-19.25a74.7,74.7,0,0,0,9.56,15.21,325.55,325.55,0,0,0,32,34.3Q551.67,504.1,562.63,518.72Zm128.5-87.51-31.85,25.13V394.48l17.14,19.61A147.1,147.1,0,0,0,691.13,431.21Zm6.32,128.06-38.17-28.43V464.06L695,434.85a151.78,151.78,0,0,0,12.31,10.35,176.34,176.34,0,0,0,23.95,15V524Zm99.63-41.45v11l-.12-.1-23.11,25.67a22.37,22.37,0,0,1-5.39-7.6c0-.08-.08-.15-.12-.24a20.91,20.91,0,0,1-.88-2.6l0-.09a23.18,23.18,0,0,1-.53-2.66c0-.06,0-.12,0-.19a22.3,22.3,0,0,1-.19-3c0-.26,0-.59,0-.92V474.66c5.77,1.77,11.59,3.35,17.47,4.65,4.28.94,8.6,1.73,12.93,2.44Zm201.33-149.2a105.83,105.83,0,0,1-23.25,54.63,129,129,0,0,1-30.45,26.94c-23.07,14.81-49.92,23.42-77.18,27.35a242.24,242.24,0,0,1-35.1,2.3V374.76h0V265.68l-50.63,36.09a19.3,19.3,0,0,1,14.91,18.77c0,.29,0,1.35,0,1.68L797,425.29l0,51.74c-4-.62-8-1.31-12-2.14-6.2-1.3-12.35-2.89-18.42-4.71V388.56l0,.06v-117L716,307.74a19.31,19.31,0,0,1,14.9,18.77c0,.29,0,1.35,0,1.68l.39,113.86,0-.06v13.83a172.47,172.47,0,0,1-21.82-13.5,148.61,148.61,0,0,1-11.77-9.65L720.52,414,673.9,357.93l-16.08,12.95c-5.64-18.22-7.43-37.47-6.27-56.59a544,544,0,0,1,64.92-40.2c24.39-12.77,49.95-23.32,76.32-30.06s53.43-9.77,79.55-8,51.25,8.34,71.83,21.08c20.9,12.53,35.21,31.65,44.8,54.25a131.48,131.48,0,0,1,9.26,37.27C998.83,355.16,999.28,362.06,998.41,368.62Z" transform="translate(-0.08)"/><path d="M757.52,97.06a13.64,13.64,0,0,0-.91,1C756.32,98.51,756.79,98,757.52,97.06Z" transform="translate(-0.08)"/><polygon points="291.89 384.21 319.5 362.28 300 337.1 271.58 359.44 291.89 384.21"/>
<h2 class="hero__sub-title">Creative UX Developer</h2>
</svg>
